HIERARCHY
ROOT ui
{
	 OFFSET 0 0 0
	 CHANNELS 3 XPosition YPosition Z Position
	 EndSite
	 {
	 OFFSET 0 -1 0
	 }
}
ROOT li
{
	 OFFSET 0 0 0
	 CHANNELS 3 XPosition YPosition Z Position
	 EndSite
	 {
	 OFFSET 0 -1 0
	 }
}
ROOT ul
{
	 OFFSET 0 0 0
	 CHANNELS 3 XPosition YPosition Z Position
	 EndSite
	 {
	 OFFSET 0 -1 0
	 }
}
ROOT ll
{
	 OFFSET 0 0 0
	 CHANNELS 3 XPosition YPosition Z Position
	 EndSite
	 {
	 OFFSET 0 -1 0
	 }
}
ROOT tt
{
	 OFFSET 0 0 0
	 CHANNELS 3 XPosition YPosition Z Position
	 EndSite
	 {
	 OFFSET 0 -1 0
	 }
}
ROOT tb
{
	 OFFSET 0 0 0
	 CHANNELS 3 XPosition YPosition Z Position
	 EndSite
	 {
	 OFFSET 0 -1 0
	 }
}
ROOT td
{
	 OFFSET 0 0 0
	 CHANNELS 3 XPosition YPosition Z Position
	 EndSite
	 {
	 OFFSET 0 -1 0
	 }
}
ROOT v
{
	 OFFSET 0 0 0
	 CHANNELS 3 XPosition YPosition Z Position
	 EndSite
	 {
	 OFFSET 0 -1 0
	 }
}
ROOT bn
{
	 OFFSET 0 0 0
	 CHANNELS 3 XPosition YPosition Z Position
	 EndSite
	 {
	 OFFSET 0 -1 0
	 }
}
MOTION
Frames: 32
Frame Time: 0.002
-0.0016010680198669434	0.002906881093978882	0		0.4755340270996094	-2.3970146484375	0		-1.0413988037109374	0.023515056610107422	0		-0.898764892578125	-2.40142529296875	0		1.518051025390625	-0.4213518371582031	0		3.0781806640625	0.1308214874267578	0		4.4255400390625	0.19472370910644532	0		5.59229736328125	0.11483438110351563	0		-0.19130848693847657	5.88924365234375	0		
0.010298276901245117	-0.0033864281177520754	0		0.44859765625	-2.394608642578125	0		-1.04239013671875	0.02344684600830078	0		-0.8638005981445313	-2.405135986328125	0		1.5170623779296875	-0.4214041442871094	0		3.051067626953125	0.12424507141113281	0		4.42454736328125	0.1946894989013672	0		5.59544775390625	0.12273461151123047	0		-0.17912379455566407	5.9009462890625	0		
0.006233015060424805	-0.0073749589920043945	0		0.4476216430664062	-2.394648193359375	0		-1.0433846435546874	0.023396015167236328	0		-0.9007171630859375	-2.401542236328125	0		1.5160714111328124	-0.4214354553222656	0		3.04010986328125	0.1264039077758789	0		4.4235517578125	0.19468032836914062	0		5.59031005859375	0.11480715942382813	0		-0.19433956909179687	5.89115380859375	0		
-0.004570648193359375	0.0027750210762023924	0		0.4295555419921875	-2.400366455078125	0		-1.0402979736328124	0.027286949157714843	0		-0.86370263671875	-2.4032568359375	0		1.51509130859375	-0.4214484252929688	0		3.05396142578125	0.11713859558105469	0		4.41158544921875	0.19589100646972657	0		5.59828759765625	0.11267183685302734	0		-0.16506190490722655	5.9085859375	0		
0.019392118453979493	-0.001684744954109192	0		0.462740478515625	-2.393983642578125	0		-1.107106689453125	0.03643865966796875	0		-0.9314301147460937	-2.391085693359375	0		1.5212581787109376	-0.41457131958007815	0		3.08420751953125	0.12860371398925782	0		4.4274580078125	0.18662484741210938	0		5.602466796875	0.12063068389892578	0		-0.16609051513671874	5.9085703125	0		
0.013535244941711426	0.0024013841152191163	0		0.44995205688476564	-2.38776708984375	0		-1.0381365966796876	0.030172950744628908	0		-0.8634991455078125	-2.40133056640625	0		1.517281494140625	-0.41749990844726564	0		3.047193359375	0.1242849884033203	0		4.420669921875	0.19478643798828124	0		5.5915732421875	0.12288015747070312	0		-0.18323789978027344	5.90085205078125	0		
-2.2628700733184814E-4	0.009638422012329102	0		0.44602825927734374	-2.3917001953125	0		-1.043078369140625	0.027235496520996095	0		-0.9023280029296875	-2.399659912109375	0		1.51232861328125	-0.4213992919921875	0		3.03634033203125	0.12651435852050782	0		4.41492236328125	0.20294609069824218	0		5.59068310546875	0.12296930694580079	0		-0.19742575073242188	5.88908935546875	0		
0.006555998802185058	-0.01148862361907959	0		0.45202728271484377	-2.4028037109375	0		-1.0479915771484376	0.023302833557128907	0		-0.8692262573242188	-2.40526708984375	0		1.5114931640625	-0.4213629455566406	0		3.045458984375	0.12439727020263672	0		4.4247900390625	0.18683547973632814	0		5.5898388671875	0.12307093048095703	0		-0.199326416015625	5.89111572265625	0		
0.003906758069992066	-0.0034392108917236327	0		0.42736785888671874	-2.39735498046875	0		-1.1146312255859374	0.03247378158569336	0		-0.9408426513671875	-2.397004150390625	0		1.5107081298828124	-0.4213228759765625	0		3.061804443359375	0.1321589813232422	0		4.42399462890625	0.18692391967773436	0		5.5938662109375	0.11309131622314453	0		-0.18505856323242187	5.89985888671875	0		
4.5253399014472963E-4	0.012626788139343263	0		0.45669906616210937	-2.395866455078125	0		-1.0414005126953125	0.03015481948852539	0		-0.8645721435546875	-2.39937353515625	0		1.5140462646484374	-0.4173544921875	0		3.04392333984375	0.12452831268310546	0		4.4173955078125	0.19511766052246093	0		5.5883037109375	0.12328631591796875	0		-0.1858954315185547	5.89987109375	0		
0.01144612216949463	-0.005570784091949463	0		0.4280565185546875	-2.39534912109375	0		-1.1160560302734375	0.03246573257446289	0		-0.9052305297851563	-2.39966357421875	0		1.5092978515625	-0.42124630737304686	0		3.069357177734375	0.1311258087158203	0		4.42256494140625	0.18709439086914062	0		5.5876171875	0.12338673400878906	0		-0.18667251586914063	5.899880859375	0		
0.0018539849519729613	-0.003403657913208008	0		0.4705070495605469	-2.393099609375	0		-1.050838134765625	0.023287458419799803	0		-0.8698853759765625	-2.40330712890625	0		1.508674560546875	-0.4212178955078125	0		3.04260595703125	0.12463847351074218	0		4.416076171875	0.19526838684082032	0		5.586986328125	0.12347160339355469	0		-0.20254072570800782	5.8911533203125	0		
-0.011611621856689453	0.0028253850936889647	0		0.4150210266113281	-2.389119873046875	0		-1.0514124755859375	0.023275276184082032	0		-0.908409423828125	-2.401643310546875	0		1.5081051025390626	-0.4212019958496094	0		3.032067626953125	0.12684825897216798	0		4.4155	0.19531614685058593	0		5.58641064453125	0.1235322036743164	0		-0.3365487976074219	5.871513671875	0		
0.009723175048828124	-0.005574965000152588	0		0.45235324096679685	-2.398800537109375	0		-1.0478621826171874	0.027184553146362304	0		-0.9068764038085938	-2.399697265625	0		1.5075882568359376	-0.4212022705078125	0		3.051260009765625	0.11050711822509765	0		4.408837890625	0.18744502258300783	0		5.5907119140625	0.11347499084472656	0		-0.30677984619140625	5.88996484375	0		
0.007399107933044434	0.002434941053390503	0		0.431076904296875	-2.388452392578125	0		-1.102373291015625	0.025114015579223634	0		-0.9022277221679688	-2.393814697265625	0		1.5142467041015626	-0.414345947265625	0		3.061128662109375	0.1293143310546875	0		4.41660009765625	0.2002938995361328	0		5.59538623046875	0.1213824234008789	0		-0.17391749572753906	5.90857763671875	0		
0.006985044002532959	0.002395678997039795	0		0.4726765747070312	-2.38823583984375	0		-1.0446900634765626	0.030044363021850585	0		-0.9057096557617188	-2.397801025390625	0		1.5067100830078124	-0.42125836181640625	0		3.04062890625	0.12463375854492187	0		4.41409765625	0.19529570007324218	0		5.58500927734375	0.1235262222290039	0		-0.1894951934814453	5.8998056640625	0		
0.00442537784576416	-0.008623284339904785	0		0.41737152099609376	-2.38431787109375	0		-1.0531778564453125	0.023131986618041993	0		-0.8721705322265625	-2.40345849609375	0		1.5063448486328126	-0.4213157348632813	0		3.036176025390625	0.11964688110351562	0		4.41958984375	0.18713090515136718	0		5.58464404296875	0.12346561431884766	0		-0.18985543823242187	5.89974951171875	0		
-0.0038760759830474855	-0.007556190013885498	0		0.44195382690429685	-2.389835693359375	0		-1.053498291015625	0.023059465408325194	0		-0.910471923828125	-2.401857666015625	0		1.5060235595703124	-0.4213932800292969	0		3.040713134765625	0.11147893524169922	0		4.41341259765625	0.19515277099609374	0		5.5850048828125	0.10536515808105469	0		-0.19016427612304687	5.89967578125	0		
-0.004157210826873779	-0.0076495680809021	0		0.4255980529785156	-2.39364599609375	0		-1.0456563720703125	0.029825862884521485	0		-0.8727830200195312	-2.40362255859375	0		1.5057413330078124	-0.4214906005859375	0		3.040822509765625	0.13337413024902345	0		4.4021513671875	0.19624275207519531	0		5.59400634765625	0.12109504699707031	0		-0.19042996215820313	5.89958251953125	0		
0.005771676063537598	0.0020606269836425783	0		0.4543394775390625	-2.3942724609375	0		-1.0459031982421876	0.029718093872070313	0		-0.9049078979492188	-2.396164306640625	0		1.5095634765625	-0.41767752075195314	0		3.04429150390625	0.11718578338623047	0		4.41874267578125	0.18681867980957031	0		5.583796875	0.12314458465576172	0		-0.17744851684570312	5.91123974609375	0		
-0.004266806125640869	0.012110377311706543	0		0.44425765991210936	-2.386223876953125	0		-1.04612060546875	0.029595462799072266	0		-0.8712272338867187	-2.4018896484375	0		1.5052742919921875	-0.4217369384765625	0		3.059284912109375	0.12878176879882813	0		4.4016884765625	0.19597830200195313	0		5.58357958984375	0.12300023651123047	0		-0.19085743713378905	5.8993466796875	0		
-0.014635191917419434	0.002150096893310547	0		0.440985595703125	-2.39031103515625	0		-1.05443603515625	0.022603157043457032	0		-0.9094051513671875	-2.4003515625	0		1.5050802001953125	-0.4218819274902344	0		3.0598798828125	0.11661506652832031	0		4.41247705078125	0.1946273651123047	0		5.5833876953125	0.12283985900878906	0		-0.19200984191894532	5.90022607421875	0		
0.0029955129623413087	-0.009319337844848632	0		0.4496419677734375	-2.399623046875	0		-1.0546070556640625	0.02245634841918945	0		-0.8756817626953125	-2.406101806640625	0		1.504906982421875	-0.422040771484375	0		3.038836669921875	0.12382051849365235	0		4.41816357421875	0.186349609375	0		5.583216796875	0.12266183471679687	0		-0.19215333557128905	5.9000751953125	0		
-0.014958273887634278	0.001834617018699646	0		0.4245679626464844	-2.3943466796875	0		-1.1146961669921875	0.026363792419433593	0		-0.9467130737304688	-2.398000732421875	0		1.50475244140625	-0.4222139587402344	0		3.048435546875	0.10946251678466797	0		4.40601513671875	0.18637147521972655	0		5.5830302734375	0.12046376037597656	0		-0.3094811096191406	5.88899169921875	0		
0.012886545181274415	1.623460054397583E-4	0		0.45544622802734375	-2.393076171875	0		-1.0386455078125	0.03584592056274414	0		-0.8678601684570313	-2.39857177734375	0		1.5086865234375	-0.41847299194335935	0		3.0627451171875	0.13401004028320312	0		4.40927392578125	0.2081038818359375	0		5.5870751953125	0.1301707763671875	0		-0.17621444702148437	5.907453125	0		
0.009719504356384277	-0.0029693100452423096	0		0.4174736633300781	-2.38359228515625	0		-1.12085302734375	0.031129470825195314	0		-0.9059749755859375	-2.397072998046875	0		1.50449755859375	-0.4226019287109375	0		3.038440673828125	0.12322188568115235	0		4.41191259765625	0.19382264709472657	0		5.572822265625	0.12217875671386719	0		-0.19240826416015624	5.89955517578125	0		
-0.005125432968139648	0.011100920677185058	0		0.44125531005859375	-2.389217529296875	0		-1.0510311279296876	0.02570475387573242	0		-0.8742303466796875	-2.404823974609375	0		1.5043961181640626	-0.42281466674804685	0		3.038345947265625	0.12299021911621094	0		4.411818359375	0.1935740509033203	0		5.58272607421875	0.12173799896240234	0		-0.1924317932128906	5.89936328125	0		
-0.005561559200286865	-0.009098024368286132	0		0.42403573608398437	-2.395122802734375	0		-1.055181640625	0.021589866638183595	0		-0.9102869262695312	-2.401373046875	0		1.5043095703125	-0.42303900146484374	0		3.034178955078125	0.11781529998779297	0		4.4007607421875	0.1945025634765625	0		5.57264892578125	0.12163163757324219	0		-0.20660104370117188	5.8894150390625	0		
-0.002557147979736328	-0.005361471176147461	0		0.45088790893554687	-2.3978203125	0		-1.0511768798828125	0.02532686424255371	0		-0.908359619140625	-2.399602783203125	0		1.5042359619140624	-0.42327462768554686	0		3.043451904296875	0.13638967895507811	0		4.41753466796875	0.18491508483886718	0		5.58258349609375	0.12114704895019532	0		-0.3257419128417969	5.8803310546875	0		
-0.005324501991271973	0.010473907470703125	0		0.4258618469238281	-2.393599853515625	0		-1.1170762939453125	0.03430838394165039	0		-0.9053901977539063	-2.395854248046875	0		1.5082451171875	-0.41959255981445315	0		3.043027099609375	0.11511610412597656	0		4.4006484375	0.19391229248046876	0		5.59249560546875	0.11864094543457031	0		-0.17812921142578125	5.90949462890625	0		
0.0014024330377578735	-0.00286936092376709	0		0.47867010498046875	-2.399775634765625	0		-1.0472159423828125	0.02786373710632324	0		-0.906519775390625	-2.3980361328125	0		1.508195556640625	-0.4198470153808594	0		3.068324951171875	0.13337750244140625	0		4.41159326171875	0.19239631652832032	0		5.58249560546875	0.12047267150878906	0		-0.1922301788330078	5.8985302734375	0		
0.004429249763488769	-1.4772500097751616E-4	0		0.4148099060058594	-2.386868896484375	0		-1.0472415771484376	0.02766518211364746	0		-0.8726996459960937	-2.40384521484375	0		1.504088134765625	-0.42403594970703123	0		3.04219873046875	0.12754413604736328	0		4.417427734375	0.18395806884765625	0		5.58247216796875	0.12011178588867187	0		-0.193093994140625	5.89932861328125	0		
